<?xml version="1.0" encoding="utf-8"?>
<svg xmlns="http://www.w3.org/2000/svg" xmlns:xlink="http://www.w3.org/1999/xlink" style="margin: auto; background: none; display: block; shape-rendering: auto;" width="100px" height="100px" viewBox="0 0 100 100" preserveAspectRatio="xMidYMid">
<g transform="rotate(0 50 50)">
  <rect x="47" y="24" rx="0" ry="0" width="6" height="12" fill="#292664">
    <animate attributeName="opacity" values="1;0" keyTimes="0;1" dur="3.125s" begin="-2.8645833333333335s" repeatCount="indefinite"></animate>
  </rect>
</g><g transform="rotate(30 50 50)">
  <rect x="47" y="24" rx="0" ry="0" width="6" height="12" fill="#292664">
    <animate attributeName="opacity" values="1;0" keyTimes="0;1" dur="3.125s" begin="-2.604166666666667s" repeatCount="indefinite"></animate>
  </rect>
</g><g transform="rotate(60 50 50)">
  <rect x="47" y="24" rx="0" ry="0" width="6" height="12" fill="#292664">
    <animate attributeName="opacity" values="1;0" keyTimes="0;1" dur="3.125s" begin="-2.34375s" repeatCount="indefinite"></animate>
  </rect>
</g><g transform="rotate(90 50 50)">
  <rect x="47" y="24" rx="0" ry="0" width="6" height="12" fill="#292664">
    <animate attributeName="opacity" values="1;0" keyTimes="0;1" dur="3.125s" begin="-2.0833333333333335s" repeatCount="indefinite"></animate>
  </rect>
</g><g transform="rotate(120 50 50)">
  <rect x="47" y="24" rx="0" ry="0" width="6" height="12" fill="#292664">
    <animate attributeName="opacity" values="1;0" keyTimes="0;1" dur="3.125s" begin="-1.8229166666666667s" repeatCount="indefinite"></animate>
  </rect>
</g><g transform="rotate(150 50 50)">
  <rect x="47" y="24" rx="0" ry="0" width="6" height="12" fill="#292664">
    <animate attributeName="opacity" values="1;0" keyTimes="0;1" dur="3.125s" begin="-1.5625s" repeatCount="indefinite"></animate>
  </rect>
</g><g transform="rotate(180 50 50)">
  <rect x="47" y="24" rx="0" ry="0" width="6" height="12" fill="#292664">
    <animate attributeName="opacity" values="1;0" keyTimes="0;1" dur="3.125s" begin="-1.3020833333333335s" repeatCount="indefinite"></animate>
  </rect>
</g><g transform="rotate(210 50 50)">
  <rect x="47" y="24" rx="0" ry="0" width="6" height="12" fill="#292664">
    <animate attributeName="opacity" values="1;0" keyTimes="0;1" dur="3.125s" begin="-1.0416666666666667s" repeatCount="indefinite"></animate>
  </rect>
</g><g transform="rotate(240 50 50)">
  <rect x="47" y="24" rx="0" ry="0" width="6" height="12" fill="#292664">
    <animate attributeName="opacity" values="1;0" keyTimes="0;1" dur="3.125s" begin="-0.78125s" repeatCount="indefinite"></animate>
  </rect>
</g><g transform="rotate(270 50 50)">
  <rect x="47" y="24" rx="0" ry="0" width="6" height="12" fill="#292664">
    <animate attributeName="opacity" values="1;0" keyTimes="0;1" dur="3.125s" begin="-0.5208333333333334s" repeatCount="indefinite"></animate>
  </rect>
</g><g transform="rotate(300 50 50)">
  <rect x="47" y="24" rx="0" ry="0" width="6" height="12" fill="#292664">
    <animate attributeName="opacity" values="1;0" keyTimes="0;1" dur="3.125s" begin="-0.2604166666666667s" repeatCount="indefinite"></animate>
  </rect>
</g><g transform="rotate(330 50 50)">
  <rect x="47" y="24" rx="0" ry="0" width="6" height="12" fill="#292664">
    <animate attributeName="opacity" values="1;0" keyTimes="0;1" dur="3.125s" begin="0s" repeatCount="indefinite"></animate>
  </rect>
</g>
<!-- [ldio] generated by https://loading.io/ --></svg>